<?xml version="1.0" standalone="no"?>
<!DOCTYPE svg PUBLIC "-//W3C//DTD SVG 20010904//EN"
 "http://www.w3.org/TR/2001/REC-SVG-20010904/DTD/svg10.dtd">
<svg version="1.0" xmlns="http://www.w3.org/2000/svg"
 width="1120.000000pt" height="1120.000000pt" viewBox="0 0 1120.000000 1120.000000"
 preserveAspectRatio="xMidYMid meet">

<g transform="translate(0.000000,1120.000000) scale(0.100000,-0.100000)"
fill="#000000" stroke="none">
<path d="M7047 9837 c3 -5 -13 -7 -41 -5 -25 3 -46 1 -46 -3 0 -5 -10 -9 -22
-9 -13 -1 -35 -1 -50 -1 -16 -1 -28 -5 -28 -9 0 -7 -56 -23 -85 -24 -5 -1 -12
-3 -15 -7 -6 -6 -175 -70 -193 -73 -7 -1 -18 -5 -24 -9 -7 -5 -13 -5 -13 0 0
4 -4 2 -9 -6 -5 -7 -20 -13 -35 -13 -14 0 -26 -5 -26 -10 0 -5 -4 -6 -10 -3
-5 3 -10 1 -10 -5 0 -7 -8 -9 -21 -5 -14 5 -19 4 -15 -4 5 -7 1 -9 -8 -5 -9 3
-16 1 -16 -5 0 -6 -7 -8 -17 -4 -11 5 -14 3 -8 -6 6 -10 2 -11 -15 -6 -17 5
-21 4 -15 -6 6 -9 4 -11 -8 -6 -9 3 -17 1 -19 -5 -2 -6 -16 -10 -31 -10 -15 0
-27 -5 -27 -10 0 -5 -4 -6 -10 -3 -5 3 -10 1 -10 -5 0 -7 -6 -10 -14 -7 -8 3
-16 2 -18 -3 -2 -4 -12 -10 -23 -12 -11 -1 -22 -6 -25 -10 -3 -4 -17 -9 -30
-10 -14 -2 -27 -6 -30 -9 -10 -11 -142 -59 -150 -54 -4 3 -10 1 -12 -3 -4 -12
-145 -62 -152 -55 -3 4 -6 2 -6 -4 0 -11 -88 -40 -104 -35 -5 2 -12 -2 -16 -8
-4 -7 -19 -13 -33 -13 -14 -1 -23 -6 -19 -11 3 -5 -2 -7 -11 -3 -10 4 -17 2
-17 -4 0 -6 -7 -9 -15 -5 -8 3 -15 2 -15 -3 0 -4 -21 -15 -47 -24 -27 -8 -127
-43 -223 -77 -96 -33 -177 -62 -180 -62 -3 -1 -14 -4 -25 -6 -11 -3 -22 -4
-24 -3 -2 2 -7 -2 -10 -8 -4 -6 -19 -12 -34 -13 -15 -1 -27 -5 -27 -8 0 -6
-87 -35 -105 -35 -5 0 -12 -3 -15 -6 -5 -7 -196 -69 -770 -249 -453 -143 -741
-235 -1163 -372 -185 -60 -343 -111 -350 -112 -6 -2 -20 -6 -29 -10 -9 -4 -22
-9 -30 -10 -7 -2 -21 -6 -30 -10 -9 -4 -22 -9 -30 -10 -7 -1 -23 -8 -36 -14
-12 -7 -26 -10 -31 -7 -5 3 -11 1 -13 -4 -1 -6 -14 -12 -28 -14 -14 -2 -36 -8
-50 -14 -14 -6 -58 -21 -97 -34 -40 -12 -73 -27 -73 -32 0 -4 5 -5 10 -2 7 4
9 -2 4 -19 -3 -15 -2 -26 4 -26 6 0 8 -9 5 -20 -3 -11 0 -20 6 -20 5 0 8 -7 5
-15 -4 -8 -1 -15 5 -15 6 0 8 -7 5 -15 -4 -8 -1 -15 5 -15 6 0 8 -6 5 -14 -3
-7 1 -20 9 -27 7 -8 12 -20 9 -28 -3 -8 0 -11 7 -7 7 5 9 1 5 -8 -4 -9 1 -18
10 -22 9 -3 13 -10 10 -15 -3 -5 0 -9 6 -9 6 0 9 -4 6 -9 -3 -4 6 -18 19 -31
l24 -23 -51 -26 c-49 -25 -119 -87 -181 -162 -46 -54 -93 -158 -110 -239 -21
-98 -29 -192 -16 -184 6 3 7 -5 3 -22 -5 -20 -4 -25 6 -19 9 5 10 2 5 -15 -5
-16 -4 -20 5 -15 9 5 10 1 5 -15 -5 -14 -3 -20 3 -16 6 4 8 -2 4 -16 -3 -14
-2 -19 6 -14 8 5 11 0 10 -11 -3 -35 2 -54 12 -48 6 3 7 -1 4 -9 -3 -9 -1 -16
5 -16 6 0 8 -7 4 -17 -5 -11 -3 -14 6 -8 10 6 11 2 6 -15 -5 -15 -4 -20 4 -16
7 5 9 1 5 -8 -3 -9 -1 -16 5 -16 6 0 8 -7 5 -15 -4 -8 -1 -15 5 -15 6 0 8 -7
4 -17 -5 -11 -3 -14 6 -8 10 6 11 2 6 -15 -5 -14 -3 -20 3 -16 6 4 8 -2 4 -16
-3 -13 -1 -19 5 -15 7 5 9 -1 5 -15 -3 -14 -1 -19 6 -14 8 5 10 2 6 -8 -3 -9
-1 -16 5 -16 6 0 8 -7 5 -15 -4 -8 -1 -15 6 -15 6 0 8 -4 5 -10 -3 -5 -2 -10
3 -10 6 0 8 -10 4 -22 -3 -13 -1 -19 5 -15 7 5 9 -1 5 -15 -3 -14 -1 -19 6
-14 8 5 10 2 6 -8 -3 -9 -1 -16 5 -16 6 0 8 -7 5 -15 -4 -8 -1 -15 5 -15 6 0
8 -7 4 -17 -5 -11 -3 -14 6 -8 10 6 11 2 6 -15 -5 -15 -4 -20 4 -16 7 5 9 1 5
-8 -3 -9 -2 -16 4 -16 6 0 8 -10 4 -22 -3 -14 -1 -19 6 -14 8 5 10 2 6 -8 -3
-9 -1 -16 5 -16 6 0 8 -7 5 -15 -4 -8 -1 -15 5 -15 6 0 8 -7 4 -17 -4 -11 -3
-14 5 -9 8 5 10 2 6 -8 -3 -9 -1 -16 5 -16 6 0 8 -7 5 -15 -4 -8 -1 -15 5 -15
6 0 8 -7 5 -15 -4 -8 -1 -15 5 -15 6 0 8 -7 5 -15 -4 -8 -1 -15 5 -15 6 0 8
-7 4 -17 -5 -11 -3 -14 6 -8 10 6 11 2 6 -15 -5 -17 -4 -21 6 -15 9 6 11 4 6
-8 -3 -9 -3 -17 2 -19 7 -3 70 -172 76 -206 2 -9 4 -19 5 -22 1 -3 2 -8 1 -12
0 -5 4 -8 10 -8 6 0 9 -7 5 -15 -3 -8 -1 -15 4 -15 5 0 7 -7 4 -15 -4 -8 -1
-15 6 -15 7 0 10 -7 6 -15 -3 -8 -1 -15 4 -15 5 0 7 -7 4 -15 -4 -8 -1 -15 6
-15 6 0 8 -4 5 -10 -3 -5 -1 -10 5 -10 7 0 10 -7 6 -15 -3 -8 -1 -15 5 -15 6
0 7 -5 3 -11 -3 -6 -1 -15 5 -19 7 -4 13 -17 14 -28 1 -12 5 -22 9 -22 4 0 5
-7 2 -15 -4 -8 -1 -15 5 -15 6 0 10 -3 10 -7 -1 -5 0 -11 1 -15 1 -5 3 -11 4
-15 1 -5 7 -18 14 -31 7 -12 10 -27 7 -32 -3 -6 -1 -10 5 -10 7 0 10 -7 6 -15
-3 -8 -1 -15 4 -15 5 0 7 -7 4 -15 -4 -8 -2 -15 4 -15 6 0 8 -10 4 -22 -3 -14
-1 -19 6 -14 8 5 10 2 6 -8 -3 -9 -1 -16 5 -16 6 0 8 -7 4 -17 -5 -12 -3 -14
7 -8 10 6 12 4 7 -8 -3 -10 -2 -17 4 -17 6 0 8 -9 4 -21 -5 -14 -4 -19 4 -15
7 5 9 1 5 -8 -4 -9 -1 -16 6 -16 7 0 10 -7 6 -16 -4 -9 -2 -13 5 -8 8 4 9 -1
4 -16 -5 -15 -4 -20 4 -16 7 5 9 1 5 -8 -3 -9 -1 -16 5 -16 6 0 8 -7 5 -15 -4
-8 -2 -15 4 -15 5 0 10 -6 9 -12 -1 -35 4 -49 15 -42 7 4 8 3 4 -4 -9 -15 4
-63 15 -56 5 3 6 -2 3 -10 -3 -9 -1 -16 6 -16 6 0 9 -4 6 -9 -7 -11 13 -71 25
-71 4 0 6 -7 3 -15 -4 -8 -1 -15 5 -15 6 0 8 -7 4 -17 -4 -10 -2 -14 4 -10 7
5 9 -1 5 -15 -3 -14 -1 -19 6 -14 8 5 10 2 6 -8 -3 -9 -1 -16 5 -16 6 0 8 -7
5 -15 -4 -8 -1 -15 5 -15 6 0 8 -6 5 -14 -3 -7 1 -20 9 -27 7 -8 12 -20 9 -27
-2 -6 1 -12 7 -12 6 0 8 -7 5 -15 -4 -8 -1 -15 5 -15 6 0 8 -7 4 -17 -5 -11
-3 -14 6 -8 10 6 11 2 6 -15 -5 -15 -4 -20 4 -16 7 5 9 1 5 -8 -3 -9 -2 -16 4
-16 6 0 8 -10 4 -22 -3 -14 -1 -19 6 -14 8 5 10 2 6 -8 -3 -9 -1 -16 5 -16 6
0 8 -7 4 -17 -4 -11 -3 -14 5 -9 8 5 10 2 6 -8 -3 -9 -1 -16 5 -16 6 0 8 -7 5
-15 -4 -8 -1 -15 5 -15 6 0 8 -7 5 -15 -4 -8 -1 -15 5 -15 6 0 8 -7 5 -15 -4
-8 -1 -15 5 -15 6 0 8 -7 4 -17 -4 -11 -3 -14 5 -9 8 5 10 2 6 -8 -3 -9 -1
-16 5 -16 6 0 8 -7 5 -15 -4 -8 -1 -15 5 -15 6 0 8 -7 5 -15 -4 -8 -2 -15 4
-15 5 0 10 -6 9 -12 -1 -33 4 -49 13 -43 6 3 7 -1 4 -9 -3 -9 -1 -16 5 -16 6
0 8 -7 5 -15 -4 -8 -1 -15 5 -15 6 0 8 -7 5 -15 -4 -8 -1 -15 5 -15 6 0 8 -7
5 -15 -4 -8 -1 -15 5 -15 6 0 8 -7 5 -15 -4 -8 -1 -15 6 -15 6 0 8 -4 5 -10
-3 -5 -2 -10 4 -10 6 0 8 -7 5 -15 -4 -8 -1 -15 5 -15 6 0 8 -7 5 -15 -4 -8
-1 -15 5 -15 6 0 8 -7 4 -17 -4 -11 -3 -14 5 -9 8 5 10 2 6 -8 -3 -9 -1 -16 5
-16 6 0 8 -6 5 -14 -3 -7 1 -20 9 -27 7 -8 12 -19 10 -25 -2 -7 3 -18 11 -27
8 -8 12 -17 9 -21 -4 -3 -1 -6 5 -6 7 0 11 -3 11 -7 -3 -21 2 -33 13 -27 7 5
8 3 4 -5 -8 -13 81 -107 91 -98 2 3 13 -3 24 -14 11 -11 24 -17 28 -14 5 2 12
-2 15 -11 3 -9 12 -14 19 -11 8 3 14 -1 14 -8 0 -8 -37 -27 -86 -46 -143 -53
-158 -64 -177 -128 -8 -31 -28 -78 -43 -106 -49 -87 -56 -121 -36 -166 10 -21
22 -39 26 -39 5 0 6 -6 3 -14 -3 -7 2 -21 11 -30 9 -9 14 -16 10 -16 -3 0 0
-10 7 -22 7 -13 13 -26 14 -30 1 -5 3 -11 4 -15 1 -5 2 -11 1 -15 0 -5 4 -8
10 -8 6 0 9 -7 5 -15 -3 -8 -1 -15 5 -15 6 0 7 -4 4 -10 -3 -5 -1 -10 5 -10 7
0 10 -7 6 -15 -3 -8 -1 -15 4 -15 5 0 7 -7 4 -15 -4 -8 -1 -15 6 -15 6 0 8 -4
5 -10 -3 -5 -2 -10 4 -10 6 0 8 -7 5 -15 -4 -8 -2 -15 3 -15 5 0 10 -10 10
-22 1 -13 7 -24 12 -26 5 -2 7 -10 4 -18 -3 -8 0 -14 7 -14 6 0 8 -4 5 -10 -3
-5 -2 -10 4 -10 6 0 8 -7 5 -15 -4 -8 -1 -15 6 -15 6 0 8 -4 5 -10 -10 -16 10
-12 79 17 36 14 62 31 59 36 -3 6 -1 7 5 3 7 -4 44 4 83 19 72 26 89 25 89 -1
0 -8 4 -13 9 -10 5 3 9 0 8 -7 -1 -34 4 -48 15 -41 6 4 8 3 5 -3 -10 -16 23
-104 35 -96 6 3 8 1 4 -5 -8 -14 27 -105 38 -95 4 4 4 0 0 -10 -3 -10 -1 -17
6 -17 6 0 9 -4 6 -9 -9 -14 15 -72 27 -64 6 4 8 0 4 -10 -8 -21 2 -49 14 -41
5 3 6 -2 3 -10 -3 -9 -2 -16 4 -16 5 0 10 -6 9 -13 -1 -32 4 -48 13 -42 5 3 7
0 4 -8 -3 -8 2 -21 10 -30 8 -8 12 -17 9 -21 -4 -3 -1 -6 5 -6 6 0 9 -7 6 -15
-4 -8 -1 -15 6 -15 6 0 8 -4 5 -10 -3 -5 -2 -10 4 -10 6 0 8 -6 5 -14 -3 -7 1
-20 9 -27 7 -8 12 -20 9 -28 -3 -8 0 -11 7 -7 7 5 9 1 5 -8 -3 -9 -1 -16 5
-16 6 0 8 -7 4 -17 -5 -12 -3 -14 7 -8 9 5 11 4 6 -3 -16 -26 59 -134 127
-183 38 -27 38 -28 89 -12 29 8 76 26 105 39 l54 23 9 -22 c118 -277 168 -386
175 -379 5 4 5 2 1 -5 -7 -13 13 -63 26 -63 5 0 7 -4 4 -9 -7 -10 42 -135 55
-139 5 -2 7 -8 3 -13 -3 -5 0 -9 6 -9 6 0 8 -5 5 -10 -3 -5 -1 -10 5 -10 6 0
9 -4 6 -9 -12 -18 5 -37 32 -36 40 1 83 16 76 26 -3 5 1 6 9 3 8 -3 21 1 28 9
8 7 20 12 28 9 9 -3 11 0 6 8 -5 8 -4 11 2 7 6 -4 84 23 174 59 90 37 252 100
359 141 266 101 529 205 685 269 72 29 173 69 225 89 52 20 151 59 220 87 151
61 253 101 515 202 110 42 205 82 210 89 6 7 19 14 30 15 11 2 23 9 27 15 4 7
8 8 8 2 0 -5 4 -4 9 3 4 7 18 14 29 15 12 1 22 5 22 9 0 4 3 7 8 6 4 -1 16 3
27 9 36 20 178 76 192 76 7 0 13 4 13 9 0 5 5 6 10 3 6 -3 10 -1 10 5 0 6 4 9
9 5 5 -3 12 -1 16 5 4 6 11 8 16 5 5 -4 9 -2 9 2 0 5 10 9 22 10 11 1 24 7 28
13 4 6 17 12 28 13 12 1 22 4 22 7 0 3 10 6 22 7 11 1 24 6 27 10 3 4 15 10
26 11 11 2 22 8 23 13 2 5 8 7 13 3 5 -3 9 -1 9 5 0 6 7 8 15 5 8 -4 15 -2 15
3 0 5 10 10 22 10 13 1 24 7 26 13 2 5 8 8 13 4 5 -3 9 0 9 6 0 7 7 10 15 6 8
-3 15 -1 15 5 0 6 5 7 10 4 6 -3 10 -2 10 2 0 5 10 9 22 10 11 1 25 8 29 15 5
7 9 9 9 3 0 -5 4 -4 9 3 4 7 18 14 29 15 12 1 22 5 22 9 0 4 7 5 15 2 8 -4 15
-1 15 6 0 6 5 8 10 5 6 -3 10 -1 10 5 0 6 4 9 9 5 5 -3 12 -1 16 5 4 6 11 8
16 5 5 -4 9 -1 9 4 0 6 11 11 25 11 14 0 25 5 25 11 0 5 5 7 10 4 6 -3 10 -2
10 4 0 6 7 8 15 5 8 -4 15 -1 15 6 0 6 5 8 10 5 6 -3 10 -2 10 4 0 6 7 7 17 4
11 -4 14 -3 9 5 -5 8 -2 10 8 6 9 -3 16 -1 16 6 0 6 5 8 10 5 6 -3 10 -1 10 5
0 6 4 9 9 5 5 -3 12 -1 16 5 4 6 11 8 16 5 5 -4 9 -1 9 5 0 6 4 9 9 5 5 -3 12
-1 16 5 4 6 11 8 16 5 5 -4 9 -1 9 5 0 6 5 8 10 5 6 -3 10 -2 10 4 0 6 7 8 15
5 8 -4 15 -1 15 6 0 6 5 8 10 5 6 -3 10 -2 10 4 0 6 6 8 14 5 7 -3 20 2 29 10
8 8 17 12 21 9 3 -4 6 -1 6 5 0 6 7 9 15 6 8 -4 15 -1 15 6 0 6 5 8 10 5 6 -3
10 -2 10 4 0 6 7 7 17 4 11 -4 14 -3 9 5 -5 8 -2 10 8 6 9 -3 16 -1 16 6 0 6
5 8 10 5 6 -3 10 -2 10 4 0 6 6 8 14 5 7 -3 20 1 27 9 8 7 19 12 25 10 7 -2
18 3 27 11 8 8 17 12 21 9 3 -4 6 -1 6 5 0 6 6 9 14 6 7 -3 20 1 27 8 8 7 23
15 34 16 11 2 22 8 23 13 2 5 8 7 13 3 5 -3 9 -1 9 5 0 6 6 8 14 5 7 -3 20 1
27 8 8 7 19 13 24 13 21 1 85 27 85 35 0 5 6 7 14 4 7 -3 20 1 27 9 8 7 20 12
27 9 6 -2 12 1 12 8 0 6 5 8 10 5 6 -3 10 -2 10 4 0 6 7 7 17 4 10 -4 14 -2
10 4 -4 6 7 16 23 23 55 23 127 121 151 205 45 156 -11 348 -142 481 -27 27
-72 63 -99 80 -27 16 -50 31 -49 34 0 3 42 29 94 59 158 91 284 211 355 338
20 36 26 41 39 30 14 -10 14 -10 3 5 -11 14 -9 25 11 72 13 31 25 54 28 52 2
-2 4 10 5 27 1 18 7 61 14 97 11 60 9 227 -4 287 -39 183 -120 333 -254 470
-65 67 -197 164 -242 178 -18 6 -15 13 31 68 58 72 132 216 155 302 23 90 19
252 -11 451 -14 93 -30 187 -36 209 -6 22 -91 229 -189 460 -217 513 -285 677
-285 690 0 6 -3 12 -6 15 -14 12 -150 340 -141 340 4 0 2 4 -4 8 -6 4 -37 66
-69 137 -81 183 -96 225 -84 225 5 0 7 5 4 10 -4 6 -12 7 -18 3 -7 -4 -6 1 2
10 12 15 12 17 -4 11 -12 -5 -16 -4 -12 3 4 6 3 13 -2 15 -14 5 -72 149 -64
161 3 5 2 7 -4 4 -9 -5 -33 46 -32 67 0 5 -4 12 -9 15 -5 3 -22 35 -37 70 -59
140 -126 270 -179 344 -31 42 -53 77 -49 77 4 0 0 6 -9 13 -8 6 -48 49 -87 94
-39 45 -108 113 -153 150 -45 37 -92 78 -105 90 -12 12 -23 20 -23 17 0 -2
-29 14 -65 37 -91 57 -234 119 -294 126 -28 3 -49 8 -47 12 2 3 -40 6 -95 7
-59 0 -96 -3 -92 -9z m272 -163 c250 -116 471 -295 595 -482 85 -128 258 -490
476 -997 341 -791 561 -1335 593 -1465 9 -36 21 -117 27 -180 6 -63 23 -157
37 -208 21 -76 25 -108 21 -175 -3 -45 -12 -98 -20 -117 l-15 -35 5 58 c3 44
0 70 -15 105 -11 26 -27 77 -36 114 -9 37 -36 111 -60 165 -25 54 -84 194
-132 312 -47 117 -101 247 -120 290 -18 42 -70 162 -115 266 -45 105 -115 264
-155 355 -40 91 -134 305 -208 475 -74 171 -149 342 -167 380 -17 39 -35 88
-39 110 -4 22 -13 39 -19 38 -6 -2 -9 4 -6 11 3 8 -4 24 -17 37 -12 12 -32 49
-44 83 -30 83 -58 135 -124 236 -30 47 -60 94 -66 105 -69 125 -96 167 -186
286 -86 113 -180 197 -284 253 -68 36 -18 23 74 -20z m-246 -88 c155 -59 309
-200 446 -407 126 -190 331 -614 434 -899 19 -52 86 -221 150 -375 63 -154
155 -381 205 -505 49 -124 120 -295 157 -380 78 -182 87 -205 47 -130 -37 69
-166 374 -279 658 -47 119 -118 293 -158 387 -40 93 -94 229 -120 300 -100
272 -291 684 -400 865 -131 216 -290 383 -429 450 -96 46 -185 65 -265 57 -60
-7 -525 -167 -986 -340 -240 -90 -913 -317 -1610 -542 -181 -59 -521 -169
-755 -245 -234 -76 -441 -140 -460 -144 -19 -3 156 58 390 135 504 166 1318
432 1480 484 202 64 697 234 950 327 387 142 882 318 920 328 65 17 208 5 283
-24z m-28 -330 c72 -22 150 -78 181 -132 15 -25 87 -184 159 -353 73 -168 200
-459 283 -647 83 -188 187 -431 232 -540 79 -192 202 -487 317 -759 30 -71 96
-220 146 -330 87 -193 91 -203 95 -286 4 -72 1 -94 -17 -134 -24 -55 -39 -57
-16 -2 18 44 19 158 1 206 l-12 35 1 -55 c0 -30 4 -60 9 -68 6 -9 5 -12 -1 -8
-6 4 -13 -2 -16 -13 -3 -11 -1 -18 4 -14 14 8 11 -10 -10 -58 -22 -52 -62 -89
-162 -150 -167 -102 -668 -358 -899 -460 -344 -153 -899 -382 -906 -375 -2 2
99 47 224 101 125 53 243 106 262 117 32 19 30 19 -17 3 -15 -5 -15 -3 2 11
20 17 19 17 -7 11 -34 -8 -35 -3 -5 25 l22 21 -25 -7 c-22 -7 -23 -6 -12 8 11
13 10 16 -8 22 -16 5 -18 10 -11 19 6 7 8 16 4 20 -8 8 29 36 39 30 4 -3 5 2
2 10 -7 18 -58 1 -424 -141 -135 -53 -384 -146 -555 -208 -383 -139 -688 -256
-865 -331 -74 -31 -180 -74 -235 -94 -126 -48 -236 -99 -212 -100 10 0 15 -4
12 -10 -8 -12 -8 -12 33 -1 18 6 30 6 27 1 -3 -4 1 -11 7 -14 9 -4 8 -5 -2 -5
-37 3 -46 -1 -27 -12 9 -6 27 -7 40 -4 22 7 22 7 2 -9 -16 -13 -17 -15 -3 -10
27 9 21 -12 -9 -35 -16 -12 -23 -21 -18 -20 34 4 39 -3 15 -21 -14 -11 -20
-20 -15 -20 6 0 -8 -9 -30 -20 -22 -11 -31 -18 -20 -14 32 10 278 98 429 154
76 28 140 49 142 47 2 -2 -80 -37 -183 -77 -104 -40 -296 -115 -428 -166 -209
-81 -401 -154 -700 -265 -103 -38 -190 -47 -272 -25 -68 17 -144 53 -183 87
-25 21 -25 21 10 -1 109 -67 223 -96 315 -79 55 10 70 19 32 19 -44 0 -55 9
-51 41 2 17 6 35 9 40 4 5 0 9 -7 9 -8 0 -9 3 -3 8 9 7 14 19 19 51 2 8 12 22
24 32 30 23 28 30 -7 23 -71 -15 -153 62 -196 182 -27 76 -97 267 -264 719
-77 206 -177 470 -206 539 -14 33 -39 61 -31 34 17 -55 15 -78 -12 -107 -43
-48 -62 -74 -62 -88 0 -7 -11 -15 -25 -19 -31 -8 -77 24 -109 75 -28 43 -117
269 -254 641 -56 151 -156 421 -223 600 -67 179 -135 361 -151 405 -25 67 -29
91 -25 146 7 108 74 206 174 257 21 11 666 229 1433 485 1751 584 2083 699
2655 914 436 165 462 171 570 139z m841 -1192 c153 -342 356 -825 351 -831 -5
-4 -123 262 -172 383 -20 50 -63 138 -95 195 -81 141 -141 262 -143 288 -1 12
-6 21 -11 21 -5 0 -7 3 -4 6 7 6 -36 140 -51 158 -9 11 -61 163 -61 175 1 13
45 -79 186 -395z m-4891 256 c-11 -5 -27 -9 -35 -9 -9 0 -8 4 5 9 11 5 27 9
35 9 9 0 8 -4 -5 -9z m-226 -134 c118 -45 195 -86 185 -96 -5 -4 -66 -27 -137
-50 -142 -47 -116 -48 -302 11 -55 17 -108 32 -117 32 -9 1 -15 4 -12 8 2 4
-6 9 -18 12 -17 2 -19 5 -8 10 50 20 297 106 308 107 7 0 52 -15 101 -34z
m5341 -735 c-1 -13 -29 45 -29 59 0 8 6 0 14 -19 8 -18 15 -36 15 -40z m459
-676 c0 -5 -6 1 -14 15 -8 14 -14 30 -14 35 0 6 6 -1 14 -15 8 -14 14 -29 14
-35z m30 -70 c0 -5 -6 1 -14 15 -8 14 -14 30 -14 35 0 6 6 -1 14 -15 8 -14 14
-29 14 -35z m30 -70 c0 -5 -6 1 -14 15 -8 14 -14 30 -14 35 0 6 6 -1 14 -15 8
-14 14 -29 14 -35z m35 -71 c3 -8 2 -12 -4 -9 -6 3 -10 10 -10 16 0 14 7 11
14 -7z m24 -59 c-3 -3 -9 2 -12 12 -6 14 -5 15 5 6 7 -7 10 -15 7 -18z m61
-135 c0 -10 -3 -8 -9 5 -12 27 -12 43 0 25 5 -8 9 -22 9 -30z m85 -845 c218
-58 385 -182 473 -350 142 -272 109 -569 -87 -766 -54 -55 -86 -76 -180 -122
-110 -53 -579 -247 -598 -247 -5 0 -23 33 -39 73 -240 579 -488 1163 -504
1183 -6 7 -4 15 3 21 16 12 404 152 503 182 179 54 297 61 429 26z m-1061
-337 c16 -35 44 -98 62 -140 l34 -77 -72 -27 c-61 -22 -423 -162 -509 -196
-16 -6 -28 -12 -28 -14 0 -5 58 -159 70 -186 l13 -27 51 20 c336 129 508 191
516 183 5 -5 36 -67 68 -139 l60 -129 -112 -37 c-136 -45 -474 -177 -481 -188
-5 -10 20 -88 55 -168 l22 -52 37 15 c77 33 571 224 580 224 7 0 124 -271 118
-275 -1 -1 -49 -20 -107 -43 -58 -23 -217 -87 -355 -143 -423 -171 -476 -192
-481 -187 -2 3 -33 81 -68 174 -109 290 -191 493 -321 794 -13 30 -37 90 -54
133 -17 43 -42 100 -56 127 -23 46 -24 50 -7 58 9 6 179 73 377 150 198 78
398 157 445 176 47 19 92 35 100 36 9 0 27 -25 43 -62z m-1373 -93 c-14 -8
-29 -14 -35 -14 -5 0 1 6 15 14 14 8 30 14 35 14 6 0 -1 -6 -15 -14z m-60 -25
c-8 -5 -19 -10 -25 -10 -5 0 -3 5 5 10 8 5 20 10 25 10 6 0 3 -5 -5 -10z m-50
-20 c-8 -5 -19 -10 -25 -10 -5 0 -3 5 5 10 8 5 20 10 25 10 6 0 3 -5 -5 -10z
m313 -356 c79 -18 145 -47 153 -68 3 -8 -22 -71 -55 -141 -51 -108 -63 -126
-78 -120 -75 32 -106 38 -178 38 -90 0 -153 -18 -228 -65 -45 -29 -87 -75 -91
-101 -1 -7 -12 -27 -24 -44 -50 -70 -66 -123 -66 -213 0 -74 4 -94 30 -150 43
-91 111 -162 192 -202 61 -30 74 -33 162 -33 89 0 100 2 171 36 72 35 130 82
177 143 l22 29 43 -17 c70 -27 219 -110 230 -128 17 -25 -17 -89 -83 -157 -94
-96 -195 -155 -350 -207 -76 -25 -99 -28 -225 -28 -102 -1 -157 4 -205 17 -36
9 -83 19 -104 22 -22 2 -63 11 -92 20 -137 40 -291 266 -341 499 -10 49 -13
102 -10 171 9 185 77 337 207 466 196 195 495 289 743 233z m-1244 2 c-8 -8
-142 -56 -146 -52 -2 2 27 15 64 29 65 25 91 32 82 23z m8 -398 c17 -24 113
-255 113 -273 0 -2 -75 -31 -167 -64 -362 -133 -453 -173 -453 -197 0 -29 54
-176 66 -181 14 -5 22 -2 338 121 121 47 224 86 231 86 12 0 125 -276 125
-305 0 -25 -45 -46 -310 -145 -139 -52 -255 -100 -257 -107 -7 -18 50 -163 64
-163 12 0 70 21 437 159 103 39 194 71 201 71 7 0 33 -53 58 -117 72 -185 84
-158 -104 -228 -89 -33 -168 -65 -174 -72 -7 -7 -15 -10 -18 -7 -3 3 -26 -3
-51 -15 -59 -26 -62 -47 -6 -42 8 1 2 -6 -13 -15 -16 -8 -35 -13 -43 -10 -8 3
-13 2 -10 -2 5 -8 -478 -202 -500 -202 -5 0 -29 53 -53 118 -24 64 -121 308
-216 542 -194 479 -261 666 -245 685 6 7 23 18 38 23 317 125 916 350 933 351
4 1 11 -5 16 -11z m-1872 -188 c3 -4 -1 -13 -8 -19 -18 -14 -89 33 -81 54 5
11 12 10 45 -7 21 -11 41 -24 44 -28z m853 -348 c30 -73 52 -138 49 -145 -2
-7 -89 -43 -191 -81 l-187 -68 7 -32 c3 -17 35 -105 70 -196 176 -459 304
-806 304 -826 0 -18 -14 -28 -77 -55 -124 -51 -265 -100 -278 -96 -6 3 -16 27
-22 54 -13 54 -270 717 -352 905 l-20 48 -93 -34 c-51 -19 -122 -46 -157 -60
-90 -36 -98 -35 -122 22 -42 96 -81 216 -82 255 l-2 41 70 29 c39 16 147 58
240 94 603 231 743 282 765 280 21 -2 31 -18 78 -135z m4546 49 c24 -10 61
-35 84 -55 110 -100 114 -301 7 -395 -32 -27 -129 -71 -160 -71 -8 0 -17 -5
-21 -11 -10 -17 -122 -5 -175 18 -97 43 -155 126 -166 238 -17 168 141 314
325 300 34 -2 82 -13 106 -24z m-680 -208 c22 -45 196 -461 196 -472 0 -5 -27
-18 -59 -29 l-59 -20 -30 67 c-38 83 -172 417 -172 428 0 10 78 51 97 52 7 1
19 -11 27 -26z m-313 -195 c45 -25 79 -83 79 -134 0 -38 -10 -64 -43 -115
l-17 -26 95 -72 c52 -39 95 -75 95 -80 0 -5 -24 -15 -54 -22 -52 -11 -54 -11
-109 24 -30 20 -57 34 -59 32 -2 -2 -26 13 -53 35 -53 42 -53 42 -135 0 -46
-24 -46 -20 0 -132 l27 -66 -50 -21 c-27 -12 -55 -21 -61 -21 -6 0 -43 82 -83
183 -83 212 -108 289 -101 309 6 14 216 99 308 125 55 15 112 9 161 -19z
m-1856 -108 c3 -6 -1 -7 -9 -4 -18 7 -21 14 -7 14 6 0 13 -4 16 -10z m1102
-295 c76 -72 173 -161 216 -199 42 -38 77 -73 77 -77 0 -4 -28 -17 -62 -28
l-62 -21 -47 40 c-26 22 -54 40 -62 40 -27 0 -47 -12 -40 -23 4 -6 0 -8 -10
-4 -10 4 -17 2 -17 -4 0 -6 -7 -9 -15 -5 -8 3 -15 1 -15 -4 0 -5 -7 -6 -17 -3
-12 5 -14 3 -8 -7 5 -8 4 -11 -3 -6 -13 8 -120 -30 -144 -51 -11 -10 -18 -34
-20 -71 l-3 -56 -58 -25 c-31 -13 -60 -22 -63 -18 -7 7 12 272 33 456 l16 144
71 32 c39 18 76 30 83 26 6 -3 74 -65 150 -136z m-709 -165 c39 -24 39 -30 6
-70 -19 -22 -30 -28 -37 -21 -6 6 -43 11 -81 11 -109 -1 -186 -42 -186 -101 0
-44 30 -51 137 -34 175 29 263 12 299 -57 24 -47 14 -119 -23 -166 -82 -102
-348 -167 -439 -107 -30 19 -30 37 -1 71 22 25 25 26 62 14 51 -17 148 -8 213
20 59 25 82 51 82 92 0 50 -35 56 -159 28 -124 -27 -198 -27 -242 3 -61 41
-72 125 -25 197 69 106 301 177 394 120z m-978 -4 c0 -11 -19 -15 -25 -6 -3 5
1 10 9 10 9 0 16 -2 16 -4z m45 -6 c-3 -5 -12 -10 -18 -10 -7 0 -6 4 3 10 19
12 23 12 15 0z m232 -289 c173 -88 200 -322 51 -455 -80 -73 -127 -91 -238
-91 -87 0 -100 3 -149 30 -66 36 -97 76 -122 156 -23 73 -24 109 -4 176 51
171 297 269 462 184z m-773 -275 c87 -51 110 -158 52 -246 l-26 -40 42 -31
c24 -17 63 -42 88 -56 25 -14 56 -33 70 -41 l24 -15 -59 -23 c-33 -13 -69 -23
-80 -23 -11 -1 -60 26 -110 59 -49 33 -97 60 -107 60 -9 0 -45 -13 -81 -28
l-66 -28 39 -88 39 -88 -55 -25 c-30 -14 -57 -23 -59 -21 -3 3 -100 247 -180
453 -13 33 -21 63 -19 66 4 7 198 90 279 120 73 27 158 25 209 -5z"/>
<path d="M6895 9010 c-22 -5 -96 -28 -165 -53 -69 -25 -219 -79 -335 -120
-632 -226 -1195 -420 -1202 -414 -2 3 37 19 87 37 96 35 117 49 35 25 -26 -8
-51 -13 -53 -10 -3 3 0 5 7 5 8 0 10 10 7 28 -3 15 -7 36 -8 47 -2 11 -9 24
-16 28 -10 7 -11 12 -1 23 9 11 9 18 1 26 -13 13 -85 -8 -522 -153 -293 -97
-399 -137 -370 -138 13 -1 13 -2 0 -11 -13 -8 -12 -10 3 -10 11 0 15 -4 11
-12 -4 -6 -8 -28 -9 -47 -1 -20 -5 -43 -9 -52 -4 -10 -1 -23 8 -32 14 -14 12
-17 -20 -27 -19 -7 -33 -14 -30 -17 3 -3 26 2 52 11 26 9 49 14 51 12 2 -2
-35 -17 -84 -34 -87 -29 -226 -78 -878 -305 -181 -63 -436 -151 -565 -196
-317 -108 -312 -106 -331 -129 -10 -13 -14 -31 -12 -47 3 -14 1 -31 -5 -38
-16 -19 6 -96 95 -326 41 -108 128 -338 193 -511 65 -173 159 -423 210 -555
51 -132 132 -346 180 -475 48 -129 140 -377 205 -550 64 -173 132 -359 151
-414 60 -176 94 -214 181 -203 44 6 417 137 476 168 15 8 72 84 137 184 62 94
122 181 134 194 49 54 421 215 876 381 201 73 376 139 390 146 l25 13 -25 8
c-37 10 -176 81 -188 96 -16 19 -152 452 -164 522 -3 17 -13 21 -69 25 l-66 5
13 -45 c7 -25 36 -117 64 -205 27 -87 50 -164 50 -170 0 -18 -70 -115 -84
-115 -18 0 -46 33 -46 53 0 9 9 26 21 38 11 11 19 28 16 37 -3 10 -28 92 -55
184 -28 92 -54 183 -58 202 -3 20 -12 36 -19 36 -7 0 -59 21 -114 47 -56 25
-103 44 -105 42 -1 -2 -31 -52 -64 -111 -34 -59 -133 -221 -220 -360 -200
-318 -186 -291 -166 -330 12 -22 15 -48 12 -91 -4 -50 -9 -64 -31 -83 -34 -29
-96 -46 -167 -46 -124 1 -187 53 -175 146 15 116 93 181 216 180 l67 0 30 45
c79 122 286 460 351 573 51 90 71 134 66 148 -3 11 -12 20 -19 20 -15 0 -293
-94 -699 -235 -26 -9 -44 -21 -41 -26 5 -9 -8 -13 -36 -10 -28 3 -205 74 -215
86 -14 17 -77 37 -85 28 -4 -5 -15 -31 -25 -60 -18 -49 -23 -54 -89 -88 -39
-19 -98 -40 -131 -46 -33 -6 -80 -17 -105 -25 -62 -19 -83 -18 -107 9 -36 39
-46 70 -46 142 0 148 90 249 232 262 75 7 130 -10 190 -57 28 -22 57 -40 64
-40 20 0 48 35 116 146 33 56 70 109 81 119 16 14 312 121 673 243 42 14 77
29 77 32 0 25 -59 54 -226 109 -219 73 -588 217 -608 237 -12 12 -21 10 -58
-11 -24 -14 -74 -34 -111 -46 -66 -20 -69 -20 -104 -2 -51 25 -73 60 -80 125
-9 86 4 143 40 185 59 67 154 83 237 41 65 -34 84 -66 90 -151 l5 -72 90 -36
c111 -44 703 -256 729 -261 15 -2 23 8 37 50 10 28 30 74 44 101 l27 49 -70
213 c-103 312 -99 280 -46 360 13 19 51 116 83 214 33 99 63 181 68 182 5 2
33 -16 63 -38 105 -80 250 -171 326 -203 41 -18 79 -37 84 -42 5 -5 36 -88 69
-184 89 -259 75 -236 145 -255 34 -10 87 -28 118 -41 32 -13 61 -24 66 -24 4
0 28 35 53 78 26 42 114 189 197 326 l151 248 -32 40 c-30 38 -32 44 -32 127
0 73 3 91 22 117 47 66 149 90 223 52 90 -46 115 -138 65 -238 -30 -59 -30
-59 -95 -65 -61 -6 -94 -21 -86 -41 4 -11 -1 -13 -22 -9 l-27 6 28 -16 c32
-18 34 -12 -53 -150 -144 -227 -313 -531 -304 -546 3 -5 12 -9 20 -9 8 0 167
50 353 110 186 61 349 110 362 110 12 0 66 -14 118 -31 l96 -31 80 38 c73 36
80 42 88 76 19 83 112 148 211 148 100 0 193 -80 203 -174 7 -54 -21 -142 -48
-157 -23 -12 -27 -13 -134 -29 -44 -7 -89 -16 -101 -20 -43 -17 -144 41 -144
82 0 10 -4 18 -9 18 -16 0 -47 -51 -109 -182 -77 -162 -92 -183 -132 -186 -17
-1 -80 -20 -139 -42 -60 -22 -191 -69 -292 -104 l-183 -63 31 -16 c17 -9 89
-36 159 -60 71 -25 249 -88 396 -141 l266 -96 57 26 c49 23 67 26 121 21 117
-9 180 -78 172 -187 -8 -109 -61 -147 -213 -151 -49 -1 -98 1 -108 6 -32 14
-49 63 -48 140 l1 72 -132 42 c-157 50 -342 116 -563 201 -88 33 -164 62 -169
63 -5 1 -15 -32 -22 -73 -8 -48 -27 -103 -53 -154 l-40 -78 91 -277 c49 -152
95 -290 100 -308 9 -25 7 -39 -11 -75 -20 -43 -37 -180 -44 -368 l-2 -65 -70
-27 c-161 -62 -383 -144 -580 -215 -230 -82 -582 -222 -685 -273 -36 -17 -73
-33 -83 -35 -9 -2 -30 -13 -46 -25 -16 -11 -89 -50 -163 -86 -73 -36 -122 -62
-108 -59 37 11 431 154 615 225 150 57 441 166 1035 387 640 238 1427 586
1940 857 166 88 214 123 252 185 32 51 32 51 -197 531 -64 135 -126 266 -137
293 -11 26 -25 47 -30 47 -5 0 -6 6 -2 13 4 6 4 9 -1 5 -4 -4 -14 -3 -22 3
-10 9 -13 8 -13 -2 0 -8 -6 -3 -13 11 -33 64 -293 674 -488 1144 -56 132 -128
306 -161 386 -55 131 -69 180 -69 232 0 10 -4 20 -10 23 -5 4 -9 13 -9 21 0 9
5 12 11 8 22 -13 -10 34 -37 55 -29 23 -29 23 -89 11z m105 -35 c11 -13 10
-14 -4 -9 -9 3 -16 10 -16 15 0 13 6 11 20 -6z m-54 -52 c-13 -14 -25 9 -13
28 12 20 12 20 15 -1 2 -12 1 -24 -2 -27z m78 -69 c3 -8 2 -12 -4 -9 -6 3 -10
10 -10 16 0 14 7 11 14 -7z m-1323 -795 c75 -38 103 -133 63 -215 -16 -33 -26
-41 -64 -51 -25 -6 -75 -12 -112 -12 -60 -1 -71 2 -98 27 -17 16 -34 45 -41
72 -39 150 106 252 252 179z m1124 -32 c81 -46 105 -142 58 -233 -20 -39 -20
-39 -88 -42 -140 -6 -215 34 -229 121 -11 66 37 145 104 170 38 14 116 6 155
-16z m-2297 -404 c69 -51 90 -129 56 -212 -15 -37 -19 -40 -67 -49 -66 -11
-149 -6 -193 13 -44 18 -68 71 -61 133 6 56 32 91 88 120 54 29 135 26 177 -5z
m2791 -624 c58 -33 76 -65 76 -136 0 -99 -47 -144 -149 -144 -69 0 -140 31
-161 71 -23 44 -19 121 8 160 46 69 151 92 226 49z m-3778 -158 c57 -36 73
-72 67 -152 -4 -50 -9 -65 -29 -79 -36 -28 -102 -43 -185 -43 -104 0 -116 13
-118 120 -1 67 2 83 22 111 54 75 163 94 243 43z m2943 -635 c105 -44 129
-223 36 -268 -34 -16 -124 -29 -204 -30 -58 -1 -76 26 -76 112 0 76 11 114 43
149 45 49 133 65 201 37z m-2499 -425 c50 -29 75 -76 75 -142 0 -71 -22 -100
-93 -123 -137 -45 -257 6 -257 110 0 139 152 225 275 155z m1125 -54 c60 -32
94 -94 86 -160 -7 -60 -10 -65 -60 -88 -48 -22 -177 -26 -216 -6 -31 16 -60
71 -60 117 0 56 31 102 90 133 64 33 103 34 160 4z"/>
<path d="M5143 7778 c4 -13 37 -110 74 -215 l68 -193 59 0 c52 0 57 2 50 18
-4 9 -33 93 -64 186 -31 92 -63 172 -71 176 -8 5 -39 18 -68 30 l-54 21 6 -23z"/>
<path d="M4970 7744 c-19 -8 -35 -16 -37 -18 -2 -2 4 -23 13 -47 9 -24 41
-116 71 -204 30 -88 56 -162 58 -164 5 -4 108 29 118 39 5 4 -21 93 -57 198
-36 106 -66 196 -66 202 0 15 -60 12 -100 -6z"/>
<path d="M4805 7673 c-51 -28 -55 -39 -34 -113 24 -87 117 -352 127 -362 7 -7
64 27 101 58 2 2 -24 88 -57 191 -33 103 -63 200 -66 216 -7 31 -26 34 -71 10z"/>
<path d="M6255 7263 c-154 -53 -281 -100 -283 -104 -2 -4 -10 -5 -19 -2 -12 5
-14 3 -8 -7 5 -8 3 -11 -6 -8 -7 2 -22 -3 -32 -13 -16 -14 -17 -21 -7 -41 26
-48 25 -48 143 -12 194 57 539 175 587 199 26 13 52 30 58 38 11 12 7 17 -20
26 -17 6 -55 13 -82 16 -45 4 -84 -7 -331 -92z"/>
<path d="M5320 7280 c-83 -11 -200 -51 -260 -90 -127 -82 -228 -249 -245 -406
-12 -114 46 -310 122 -410 101 -132 323 -200 523 -160 130 26 221 75 311 165
117 118 155 215 147 378 -8 154 -68 301 -162 397 -22 21 -34 36 -28 32 7 -4
12 -5 12 -2 0 12 -92 57 -106 52 -8 -3 -13 -2 -10 3 8 12 -109 43 -179 47 -33
1 -89 -1 -125 -6z m390 -86 c0 -2 -9 0 -20 6 -11 6 -20 13 -20 16 0 2 9 0 20
-6 11 -6 20 -13 20 -16z m-196 -84 c60 -19 142 -70 174 -109 93 -114 117 -263
62 -388 -25 -58 -95 -130 -156 -161 -86 -43 -146 -57 -249 -57 -91 0 -106 3
-166 32 -89 41 -142 92 -181 171 -30 60 -33 75 -33 157 0 77 4 98 27 147 48
104 142 182 257 214 73 20 189 17 265 -6z"/>
<path d="M5270 7016 c-116 -41 -194 -149 -194 -270 0 -159 127 -263 309 -254
192 10 300 144 265 330 -12 64 -19 78 -60 119 -76 78 -219 112 -320 75z m180
-134 c100 -50 106 -192 9 -244 -134 -72 -290 63 -221 191 35 66 136 91 212 53z"/>
<path d="M6703 7230 c-40 -20 -70 -40 -66 -44 4 -4 0 -4 -8 -1 -17 6 -193 -58
-183 -68 3 -3 -4 -3 -17 0 -17 5 -20 3 -14 -7 5 -8 4 -11 -3 -6 -16 10 -63 -4
-55 -17 3 -6 1 -7 -6 -3 -16 10 -53 -3 -45 -16 4 -7 2 -8 -5 -4 -8 5 -311 -85
-328 -98 -3 -2 28 -120 32 -125 4 -3 619 206 647 220 9 5 31 35 49 66 18 32
43 77 57 101 13 23 22 41 20 40 -1 0 -36 -18 -75 -38z"/>
<path d="M4435 6604 c-137 -46 -284 -98 -327 -115 -72 -29 -79 -34 -121 -97
-25 -37 -44 -68 -42 -70 2 -2 181 57 399 130 l396 133 -6 45 c-4 25 -7 46 -8
46 -14 15 -83 -2 -291 -72z"/>
<path d="M4365 6376 c-214 -73 -406 -136 -425 -140 l-35 -8 50 -24 c28 -13 80
-31 115 -40 l65 -17 275 96 c151 52 307 107 346 122 l71 26 -30 60 c-17 32
-33 59 -36 58 -3 -1 -181 -61 -396 -133z"/>
<path d="M8390 6355 c0 -5 5 -17 10 -25 5 -8 10 -10 10 -5 0 6 -5 17 -10 25
-5 8 -10 11 -10 5z"/>
<path d="M5792 6274 c-49 -44 -60 -59 -53 -72 5 -9 44 -127 86 -262 43 -135
79 -247 81 -249 9 -10 108 36 116 55 8 16 -8 74 -66 255 -41 129 -81 255 -88
281 l-13 47 -63 -55z"/>
<path d="M5605 6165 c-22 -7 -57 -16 -79 -20 -37 -6 -38 -8 -32 -38 16 -81
157 -495 174 -510 21 -19 42 -22 42 -7 0 6 25 22 55 37 35 17 55 33 55 44 0
10 -27 102 -61 206 -33 103 -68 212 -78 242 -9 30 -21 56 -27 57 -5 1 -27 -4
-49 -11z"/>
<path d="M8094 6104 c-18 -14 -18 -15 4 -4 12 6 22 13 22 15 0 8 -5 6 -26 -11z"/>
<path d="M7913 6026 c-138 -74 -199 -110 -148 -89 45 19 271 135 289 148 47
36 0 15 -141 -59z"/>
<path d="M6920 5530 c-9 -6 -10 -10 -3 -10 6 0 15 5 18 10 8 12 4 12 -15 0z"/>
<path d="M8565 5244 c-104 -26 -225 -74 -225 -88 0 -7 55 -146 123 -307 68
-162 134 -320 146 -351 13 -32 29 -58 36 -58 46 0 239 91 291 137 123 110 159
298 85 448 -38 76 -122 157 -201 193 -43 20 -74 26 -145 28 -49 2 -99 1 -110
-2z"/>
<path d="M5375 3390 c-3 -5 1 -10 10 -10 9 0 13 5 10 10 -3 6 -8 10 -10 10 -2
0 -7 -4 -10 -10z"/>
<path d="M5343 3375 c0 -8 4 -12 9 -9 5 3 6 10 3 15 -9 13 -12 11 -12 -6z"/>
<path d="M5255 3371 c3 -6 -5 -19 -17 -30 -29 -27 -44 -27 -17 0 26 26 21 32
-17 19 -21 -7 -29 -17 -30 -35 -2 -22 1 -25 20 -19 32 10 93 44 79 44 -7 0
-10 7 -7 15 4 8 1 15 -6 15 -6 0 -9 -4 -5 -9z"/>
<path d="M5106 3324 c-50 -18 -57 -25 -23 -22 15 1 27 7 27 13 0 5 8 1 16 -10
15 -19 15 -19 12 -1 -2 10 4 21 12 23 11 3 11 2 3 -4 -8 -6 -9 -14 -3 -23 8
-13 10 -12 10 3 0 9 0 20 1 24 1 13 -15 12 -55 -3z"/>
<path d="M3557 3298 c-32 -11 -56 -22 -54 -24 6 -6 99 25 112 37 12 11 11 11
-58 -13z"/>
<path d="M8703 3739 c-75 -22 -131 -115 -114 -189 31 -136 160 -206 276 -150
78 38 100 127 55 223 -43 91 -136 141 -217 116z"/>
<path d="M7660 3305 c-80 -32 -85 -36 -83 -62 2 -41 41 -123 59 -123 19 0 161
56 190 75 45 29 38 111 -12 134 -37 17 -61 13 -154 -24z"/>
<path d="M6956 2953 c-10 -69 -18 -193 -12 -193 17 0 153 54 166 66 13 12 5
24 -60 89 -41 41 -78 75 -81 75 -4 0 -10 -17 -13 -37z"/>
<path d="M5485 2451 c-65 -40 -95 -92 -95 -165 0 -107 97 -193 208 -182 64 6
109 30 140 77 20 29 23 44 20 101 -3 57 -8 73 -34 105 -50 62 -89 83 -153 83
-37 0 -66 -6 -86 -19z"/>
<path d="M4775 2184 c-22 -8 -70 -26 -106 -40 l-66 -25 18 -37 c10 -20 27 -58
38 -84 l20 -46 48 14 c177 52 248 142 168 212 -30 25 -63 27 -120 6z"/>
<path d="M8238 8953 c6 -2 9 -10 6 -15 -4 -7 -2 -8 5 -4 13 9 5 26 -12 25 -9
0 -8 -2 1 -6z"/>
<path d="M9320 4156 c0 -2 8 -10 18 -17 15 -13 16 -12 3 4 -13 16 -21 21 -21
13z"/>
</g>
</svg>
